<?xml version="1.0" encoding="UTF-8"?>
<svg id="Layer_1" data-name="Layer 1" xmlns="http://www.w3.org/2000/svg" viewBox="0 0 841.89 595.28">
  <defs>
    <style>
      .cls-1 {
        fill: #11172a;
      }

      .cls-2 {
        fill: #49bcec;
      }
    </style>
  </defs>
  <g>
    <path class="cls-1" d="M253.62,269.52h11.79v68.21h-11.79v-68.21Z"/>
    <path class="cls-1" d="M350.28,337.73h-11.11v-30.5c0-7.28-2.83-10.91-8.48-10.91-5.2,0-8.96,2.6-11.3,7.8v33.62h-11.11v-32.94c0-2.53-.73-4.58-2.19-6.14-1.46-1.56-3.49-2.34-6.09-2.34-2.73,0-5.1.83-7.11,2.48-2.01,1.66-3.48,3.59-4.39,5.8v33.13h-11.11v-50.67h11.11v4.38c2.6-3.64,7.21-5.46,13.84-5.46s10.95,2.08,13.74,6.24c3.51-4.16,8.61-6.24,15.3-6.24,5.98,0,10.62,1.51,13.93,4.53s4.97,7.55,4.97,13.59v33.62Z"/>
    <path class="cls-1" d="M360.32,293.39c2.4-2.34,5.51-4.17,9.31-5.51,3.8-1.33,7.78-2,11.94-2,6.63,0,11.74,1.82,15.35,5.46,3.61,3.64,5.41,8.77,5.41,15.4v30.99h-11.11v-5.55c-3.7,4.09-8.93,6.14-15.69,6.14-5.59,0-10.05-1.45-13.4-4.34-3.34-2.89-5.02-6.77-5.02-11.64,0-5.39,2.16-9.42,6.48-12.08s10.05-4,17.2-4c4.22,0,7.7.46,10.43,1.36.07-3.83-.75-6.69-2.44-8.58-1.69-1.88-4.52-2.83-8.48-2.83-5,0-9.84,1.79-14.52,5.36l-5.46-8.18ZM391.21,321.75v-4.87c-2.73-.91-5.81-1.36-9.26-1.36-8.9,0-13.35,2.24-13.35,6.72,0,2.01.84,3.59,2.53,4.73,1.69,1.14,3.96,1.71,6.82,1.71,5.78,0,10.2-2.31,13.25-6.92Z"/>
    <path class="cls-1" d="M412.36,287.06h11.11v3.41c.65-1.3,1.87-2.37,3.65-3.22,1.79-.84,3.62-1.27,5.51-1.27,4.35,0,7.7,1.49,10.04,4.48l-6.33,8.09c-.97-1.49-2.66-2.24-5.07-2.24-1.82,0-3.43.62-4.82,1.85-1.4,1.23-2.39,2.99-2.97,5.26v34.3h-11.11v-50.67Z"/>
    <path class="cls-1" d="M447.73,293.39c2.4-2.34,5.51-4.17,9.31-5.51,3.8-1.33,7.78-2,11.94-2,6.63,0,11.74,1.82,15.35,5.46,3.61,3.64,5.41,8.77,5.41,15.4v30.99h-11.11v-5.55c-3.7,4.09-8.93,6.14-15.69,6.14-5.59,0-10.05-1.45-13.4-4.34-3.34-2.89-5.02-6.77-5.02-11.64,0-5.39,2.16-9.42,6.48-12.08s10.05-4,17.2-4c4.22,0,7.7.46,10.43,1.36.07-3.83-.75-6.69-2.44-8.58-1.69-1.88-4.52-2.83-8.48-2.83-5,0-9.84,1.79-14.52,5.36l-5.46-8.18ZM478.62,321.75v-4.87c-2.73-.91-5.81-1.36-9.26-1.36-8.9,0-13.35,2.24-13.35,6.72,0,2.01.84,3.59,2.53,4.73,1.69,1.14,3.96,1.71,6.82,1.71,5.78,0,10.2-2.31,13.25-6.92Z"/>
    <path class="cls-2" d="M568.95,312.69c-2.14-1.88-4.82-3.23-8.04-4.04-3.22-.81-6.69-1.74-10.43-2.78-3.74-1.04-7.21-2.13-10.43-3.26-3.22-1.14-5.9-3.04-8.04-5.7-2.14-2.66-3.22-5.98-3.22-9.94,0-5.13,2.29-9.47,6.87-13.01,4.58-3.54,10.57-5.31,17.98-5.31,11.17,0,19.26,3.12,24.26,9.35l-4.39,4.38c-5.13-4.87-11.76-7.31-19.88-7.31-1.88,0-3.8.21-5.75.63-1.95.42-3.85,1.06-5.7,1.9-1.85.84-3.36,2.05-4.53,3.61s-1.75,3.38-1.75,5.46c0,2.53.8,4.66,2.39,6.38,1.59,1.72,3.67,3.05,6.24,4,2.57.94,5.38,1.79,8.43,2.53,3.05.75,6.12,1.58,9.21,2.48,3.09.91,5.91,2,8.48,3.26,2.57,1.27,4.64,3.09,6.24,5.46s2.39,5.21,2.39,8.53c0,5.65-2.31,10.28-6.92,13.88s-10.43,5.41-17.44,5.41c-5.85,0-11.27-1.23-16.27-3.7-5-2.47-8.74-5.52-11.21-9.16l4.68-4.77c2.27,3.05,5.46,5.68,9.55,7.89s8.74,3.31,13.93,3.31c4.48,0,8.36-1.12,11.64-3.36,3.28-2.24,4.92-5.21,4.92-8.92,0-2.92-1.07-5.33-3.22-7.21Z"/>
    <path class="cls-2" d="M634.14,337.73h-6.33v-8.48c-1.88,2.92-4.37,5.23-7.45,6.92-3.09,1.69-6.54,2.53-10.38,2.53-6.95,0-12.15-1.83-15.59-5.51-3.44-3.67-5.16-9.31-5.16-16.91v-29.52h6.33v28.26c0,11.76,4.97,17.64,14.91,17.64,3.77,0,7.19-1.12,10.28-3.36,3.08-2.24,5.44-5.31,7.06-9.21v-33.33h6.33v50.96Z"/>
    <path class="cls-2" d="M648.22,267.96c.88-.78,1.9-1.17,3.07-1.17,1.1,0,2.08.39,2.92,1.17.84.78,1.27,1.75,1.27,2.92,0,1.23-.42,2.27-1.27,3.12-.84.84-1.82,1.27-2.92,1.27-1.23,0-2.27-.42-3.12-1.27-.84-.84-1.27-1.88-1.27-3.12,0-1.17.44-2.14,1.32-2.92ZM647.98,287.06h6.33v50.67h-6.33v-50.67Z"/>
    <path class="cls-2" d="M662.01,287.06h10.13v-11.4h6.33v11.4h18.12v6.04h-18.12v24.26c0,5.52.78,9.4,2.34,11.64,1.56,2.24,4.12,3.36,7.7,3.36,3.31,0,6.11-1.43,8.38-4.29l3.9,3.8c-1.36,1.88-3.25,3.44-5.65,4.68-2.4,1.23-5,1.85-7.79,1.85-10.13,0-15.2-6.53-15.2-19.58v-25.73h-10.13v-6.04Z"/>
    <path class="cls-2" d="M748.64,328.08c-4.55,7.08-11.27,10.62-20.17,10.62-8.05,0-14.55-2.4-19.49-7.21s-7.41-11.21-7.41-19.2,2.26-14.08,6.77-19.05c4.52-4.97,10.8-7.45,18.86-7.45,6.76,0,12.33,2.11,16.71,6.33,4.38,4.22,6.58,9.78,6.58,16.66,0,1.3-.13,3.12-.39,5.46h-41.8c.07,5.72,2,10.21,5.8,13.5,3.8,3.28,8.69,4.92,14.67,4.92,3.12,0,6.11-.8,8.96-2.39,2.86-1.59,5.07-3.59,6.63-5.99l4.29,3.8ZM713.95,296.37c-3.25,3.09-5.17,7.1-5.75,12.03h35.47c-.13-5.2-1.71-9.27-4.73-12.23-3.02-2.96-7.1-4.43-12.23-4.43s-9.52,1.54-12.76,4.63Z"/>
  </g>
  <g>
    <rect class="cls-1" x="91.72" y="231.8" width="33.93" height="31.07" rx="4" ry="4"/>
    <rect class="cls-2" x="130.14" y="231.8" width="33.93" height="31.07" rx="4" ry="4"/>
    <rect class="cls-1" x="168.57" y="232.01" width="33.93" height="31.07" rx="4" ry="4"/>
    <rect class="cls-2" x="91.72" y="270.69" width="33.93" height="31.07" rx="4" ry="4"/>
    <rect class="cls-2" x="130.14" y="270.69" width="33.93" height="31.07" rx="4" ry="4"/>
    <rect class="cls-2" x="168.57" y="270.69" width="33.93" height="31.07" rx="4" ry="4"/>
    <rect class="cls-1" x="91.62" y="308.86" width="33.93" height="31.07" rx="4" ry="4"/>
    <rect class="cls-2" x="130.14" y="308.86" width="33.93" height="31.07" rx="4" ry="4"/>
    <rect class="cls-1" x="168.57" y="308.86" width="33.93" height="31.07" rx="4" ry="4"/>
  </g>
</svg>