<?xml version="1.0" encoding="UTF-8"?>
<svg id="Layer_1" data-name="Layer 1" xmlns="http://www.w3.org/2000/svg" viewBox="0 0 841.89 595.28">
  <defs>
    <style>
      .cls-1 {
        fill: #fff;
      }

      .cls-2 {
        fill: #49bcec;
      }
    </style>
  </defs>
  <path class="cls-1" d="M116.32,284.53h14.68v84.95h-14.68v-84.95Z"/>
  <path class="cls-1" d="M236.7,369.47h-13.83v-37.98c0-9.06-3.52-13.59-10.56-13.59-6.47,0-11.16,3.24-14.08,9.71v41.87h-13.83v-41.02c0-3.16-.91-5.7-2.73-7.65-1.82-1.94-4.35-2.91-7.58-2.91-3.4,0-6.35,1.03-8.86,3.09-2.51,2.06-4.33,4.47-5.46,7.22v41.26h-13.83v-63.1h13.83v5.46c3.24-4.53,8.98-6.8,17.23-6.8s13.63,2.59,17.11,7.77c4.37-5.18,10.72-7.77,19.05-7.77,7.44,0,13.23,1.88,17.35,5.64,4.13,3.76,6.19,9.41,6.19,16.93v41.87Z"/>
  <path class="cls-1" d="M249.2,314.26c2.99-2.91,6.86-5.2,11.59-6.86s9.69-2.49,14.87-2.49c8.25,0,14.62,2.27,19.11,6.8,4.49,4.53,6.74,10.92,6.74,19.17v38.59h-13.84v-6.92c-4.61,5.1-11.12,7.65-19.54,7.65-6.96,0-12.52-1.8-16.69-5.4-4.17-3.6-6.25-8.43-6.25-14.5,0-6.71,2.69-11.73,8.07-15.05,5.38-3.32,12.52-4.98,21.42-4.98,5.26,0,9.59.57,12.98,1.7.08-4.77-.93-8.33-3.03-10.68-2.1-2.35-5.62-3.52-10.56-3.52-6.23,0-12.26,2.22-18.08,6.67l-6.8-10.19ZM287.67,349.57v-6.07c-3.4-1.13-7.24-1.7-11.53-1.7-11.08,0-16.62,2.79-16.62,8.37,0,2.51,1.05,4.47,3.15,5.89,2.1,1.42,4.94,2.12,8.49,2.12,7.2,0,12.7-2.87,16.5-8.62Z"/>
  <path class="cls-1" d="M314,306.37h13.83v4.25c.81-1.62,2.33-2.95,4.55-4,2.23-1.05,4.51-1.58,6.86-1.58,5.42,0,9.59,1.86,12.5,5.58l-7.89,10.07c-1.21-1.86-3.32-2.79-6.31-2.79-2.27,0-4.27.77-6.01,2.31-1.74,1.54-2.97,3.72-3.7,6.55v42.72h-13.83v-63.1Z"/>
  <path class="cls-1" d="M358.06,314.26c2.99-2.91,6.86-5.2,11.59-6.86,4.73-1.66,9.69-2.49,14.87-2.49,8.25,0,14.62,2.27,19.11,6.8,4.49,4.53,6.73,10.92,6.73,19.17v38.59h-13.83v-6.92c-4.61,5.1-11.12,7.65-19.54,7.65-6.96,0-12.52-1.8-16.69-5.4-4.17-3.6-6.25-8.43-6.25-14.5,0-6.71,2.69-11.73,8.07-15.05,5.38-3.32,12.52-4.98,21.42-4.98,5.26,0,9.59.57,12.98,1.7.08-4.77-.93-8.33-3.03-10.68-2.1-2.35-5.62-3.52-10.56-3.52-6.23,0-12.26,2.22-18.08,6.67l-6.79-10.19ZM396.52,349.57v-6.07c-3.4-1.13-7.24-1.7-11.53-1.7-11.08,0-16.62,2.79-16.62,8.37,0,2.51,1.05,4.47,3.16,5.89,2.1,1.42,4.93,2.12,8.49,2.12,7.2,0,12.7-2.87,16.5-8.62Z"/>
  <path class="cls-2" d="M509.02,338.29c-2.67-2.35-6.01-4.03-10.01-5.04-4.01-1.01-8.33-2.16-12.98-3.46-4.65-1.29-8.98-2.65-12.99-4.07-4-1.42-7.34-3.78-10.01-7.1-2.67-3.32-4-7.44-4-12.38,0-6.39,2.85-11.79,8.55-16.2,5.71-4.41,13.17-6.61,22.39-6.61,13.91,0,23.99,3.88,30.22,11.65l-5.46,5.46c-6.39-6.07-14.64-9.1-24.76-9.1-2.35,0-4.73.26-7.16.79s-4.79,1.31-7.1,2.37c-2.3,1.05-4.19,2.55-5.64,4.49-1.46,1.94-2.18,4.21-2.18,6.8,0,3.15.99,5.8,2.97,7.95s4.57,3.8,7.77,4.98c3.2,1.17,6.7,2.22,10.5,3.16s7.62,1.96,11.47,3.09c3.84,1.13,7.36,2.49,10.56,4.07,3.2,1.58,5.79,3.84,7.77,6.8,1.98,2.95,2.97,6.49,2.97,10.62,0,7.04-2.87,12.8-8.62,17.29-5.74,4.49-12.98,6.73-21.72,6.73-7.28,0-14.04-1.54-20.27-4.61-6.23-3.07-10.88-6.88-13.96-11.41l5.83-5.95c2.83,3.8,6.79,7.08,11.89,9.83,5.1,2.75,10.88,4.13,17.35,4.13,5.58,0,10.42-1.4,14.5-4.19,4.09-2.79,6.13-6.49,6.13-11.1,0-3.64-1.33-6.63-4-8.98Z"/>
  <path class="cls-2" d="M590.21,369.47h-7.89v-10.56c-2.35,3.64-5.44,6.51-9.28,8.62-3.84,2.1-8.15,3.16-12.92,3.16-8.66,0-15.13-2.29-19.42-6.86-4.29-4.57-6.43-11.59-6.43-21.05v-36.77h7.89v35.19c0,14.64,6.19,21.96,18.57,21.96,4.69,0,8.96-1.4,12.8-4.19,3.84-2.79,6.78-6.61,8.8-11.47v-41.5h7.89v63.47Z"/>
  <path class="cls-2" d="M607.75,282.58c1.09-.97,2.37-1.46,3.82-1.46,1.38,0,2.59.49,3.64,1.46,1.05.97,1.58,2.18,1.58,3.64,0,1.54-.53,2.83-1.58,3.88-1.05,1.05-2.27,1.58-3.64,1.58-1.54,0-2.83-.53-3.88-1.58-1.05-1.05-1.58-2.35-1.58-3.88,0-1.46.55-2.67,1.64-3.64ZM607.44,306.37h7.89v63.1h-7.89v-63.1Z"/>
  <path class="cls-2" d="M624.92,306.37h12.62v-14.2h7.89v14.2h22.57v7.52h-22.57v30.22c0,6.88.97,11.71,2.91,14.5s5.14,4.19,9.59,4.19c4.12,0,7.6-1.78,10.44-5.34l4.85,4.73c-1.7,2.35-4.04,4.29-7.04,5.83-2.99,1.54-6.23,2.31-9.71,2.31-12.62,0-18.93-8.13-18.93-24.39v-32.04h-12.62v-7.52Z"/>
  <path class="cls-2" d="M732.8,357.46c-5.66,8.82-14.04,13.23-25.12,13.23-10.03,0-18.12-2.99-24.27-8.98s-9.22-13.96-9.22-23.91,2.81-17.54,8.43-23.73c5.62-6.19,13.45-9.28,23.48-9.28,8.41,0,15.35,2.63,20.81,7.89,5.46,5.26,8.19,12.18,8.19,20.75,0,1.62-.16,3.88-.48,6.8h-52.06c.08,7.12,2.49,12.72,7.22,16.81,4.73,4.08,10.82,6.13,18.26,6.13,3.88,0,7.6-.99,11.16-2.97,3.56-1.98,6.31-4.47,8.25-7.46l5.34,4.73ZM689.6,317.96c-4.04,3.84-6.43,8.84-7.16,14.99h44.17c-.16-6.47-2.12-11.55-5.88-15.23-3.76-3.68-8.84-5.52-15.23-5.52s-11.85,1.92-15.9,5.76Z"/>
</svg>