<?xml version="1.0" encoding="UTF-8"?>
<svg id="Layer_1" data-name="Layer 1" xmlns="http://www.w3.org/2000/svg" viewBox="0 0 841.89 595.28">
  <defs>
    <style>
      .cls-1 {
        fill: #fff;
      }

      .cls-2 {
        fill: #49bcec;
      }
    </style>
  </defs>
  <g>
    <path class="cls-1" d="M142.77,353.45h12.88v74.49h-12.88v-74.49Z"/>
    <path class="cls-1" d="M248.33,427.94h-12.13v-33.31c0-7.95-3.09-11.92-9.26-11.92-5.68,0-9.79,2.84-12.34,8.51v36.71h-12.13v-35.97c0-2.77-.8-5-2.39-6.7-1.6-1.7-3.81-2.55-6.65-2.55-2.98,0-5.57.91-7.77,2.71s-3.8,3.92-4.79,6.33v36.18h-12.13v-55.34h12.13v4.79c2.84-3.97,7.88-5.96,15.11-5.96s11.95,2.27,15,6.81c3.83-4.54,9.4-6.81,16.71-6.81,6.53,0,11.6,1.65,15.22,4.95s5.43,8.25,5.43,14.84v36.71Z"/>
    <path class="cls-1" d="M259.29,379.52c2.62-2.55,6.01-4.56,10.16-6.01,4.15-1.45,8.5-2.18,13.04-2.18,7.24,0,12.82,1.99,16.76,5.96s5.91,9.58,5.91,16.81v33.84h-12.13v-6.07c-4.04,4.47-9.75,6.7-17.13,6.7-6.1,0-10.98-1.58-14.63-4.74-3.65-3.16-5.48-7.4-5.48-12.72,0-5.89,2.36-10.29,7.08-13.2,4.72-2.91,10.98-4.36,18.78-4.36,4.61,0,8.41.5,11.39,1.49.07-4.19-.82-7.31-2.66-9.37-1.84-2.06-4.93-3.09-9.26-3.09-5.46,0-10.75,1.95-15.86,5.85l-5.96-8.94ZM293.02,410.48v-5.32c-2.98-.99-6.35-1.49-10.11-1.49-9.72,0-14.58,2.45-14.58,7.34,0,2.2.92,3.92,2.77,5.16,1.84,1.24,4.33,1.86,7.45,1.86,6.31,0,11.14-2.52,14.47-7.56Z"/>
    <path class="cls-1" d="M316.12,372.6h12.13v3.72c.71-1.42,2.04-2.59,3.99-3.51,1.95-.92,3.96-1.38,6.01-1.38,4.75,0,8.41,1.63,10.96,4.89l-6.92,8.83c-1.06-1.63-2.91-2.45-5.53-2.45-1.99,0-3.74.67-5.27,2.02-1.53,1.35-2.61,3.26-3.25,5.75v37.46h-12.13v-55.34Z"/>
    <path class="cls-1" d="M354.75,379.52c2.62-2.55,6.01-4.56,10.16-6.01,4.15-1.45,8.5-2.18,13.04-2.18,7.24,0,12.82,1.99,16.76,5.96,3.94,3.97,5.91,9.58,5.91,16.81v33.84h-12.13v-6.07c-4.04,4.47-9.75,6.7-17.13,6.7-6.1,0-10.98-1.58-14.63-4.74-3.65-3.16-5.48-7.4-5.48-12.72,0-5.89,2.36-10.29,7.08-13.2,4.72-2.91,10.98-4.36,18.78-4.36,4.61,0,8.41.5,11.39,1.49.07-4.19-.82-7.31-2.66-9.37-1.84-2.06-4.93-3.09-9.26-3.09-5.46,0-10.75,1.95-15.86,5.85l-5.96-8.94ZM388.48,410.48v-5.32c-2.98-.99-6.35-1.49-10.11-1.49-9.72,0-14.58,2.45-14.58,7.34,0,2.2.92,3.92,2.77,5.16s4.33,1.86,7.45,1.86c6.31,0,11.14-2.52,14.47-7.56Z"/>
    <path class="cls-2" d="M487.13,400.59c-2.34-2.06-5.27-3.53-8.78-4.42s-7.31-1.9-11.39-3.03c-4.08-1.13-7.87-2.32-11.39-3.56-3.51-1.24-6.44-3.32-8.78-6.23-2.34-2.91-3.51-6.53-3.51-10.85,0-5.6,2.5-10.34,7.5-14.21,5-3.87,11.55-5.8,19.63-5.8,12.2,0,21.03,3.41,26.5,10.22l-4.79,4.79c-5.6-5.32-12.84-7.98-21.71-7.98-2.06,0-4.15.23-6.28.69-2.13.46-4.2,1.15-6.23,2.08-2.02.92-3.67,2.24-4.95,3.94-1.28,1.7-1.92,3.69-1.92,5.96,0,2.77.87,5.09,2.61,6.97s4.01,3.33,6.81,4.36c2.8,1.03,5.87,1.95,9.21,2.77,3.33.82,6.69,1.72,10.06,2.71,3.37.99,6.46,2.18,9.26,3.57,2.8,1.38,5.07,3.37,6.81,5.96,1.74,2.59,2.61,5.69,2.61,9.31,0,6.17-2.52,11.23-7.55,15.16s-11.39,5.91-19.05,5.91c-6.38,0-12.31-1.35-17.77-4.04-5.46-2.7-9.54-6.03-12.24-10l5.11-5.21c2.48,3.33,5.96,6.21,10.43,8.62,4.47,2.41,9.54,3.62,15.22,3.62,4.9,0,9.13-1.22,12.72-3.67,3.58-2.45,5.37-5.69,5.37-9.74,0-3.19-1.17-5.82-3.51-7.88Z"/>
    <path class="cls-2" d="M558.32,427.94h-6.92v-9.26c-2.06,3.19-4.77,5.71-8.14,7.56-3.37,1.84-7.15,2.77-11.33,2.77-7.59,0-13.27-2-17.03-6.01-3.76-4.01-5.64-10.16-5.64-18.46v-32.24h6.92v30.86c0,12.84,5.43,19.26,16.28,19.26,4.11,0,7.86-1.22,11.23-3.67s5.94-5.8,7.71-10.06v-36.39h6.92v55.66Z"/>
    <path class="cls-2" d="M573.69,351.74c.96-.85,2.08-1.28,3.35-1.28,1.21,0,2.27.43,3.19,1.28.92.85,1.38,1.92,1.38,3.19,0,1.35-.46,2.48-1.38,3.41s-1.99,1.38-3.19,1.38c-1.35,0-2.48-.46-3.41-1.38-.92-.92-1.38-2.06-1.38-3.41,0-1.28.48-2.34,1.44-3.19ZM573.43,372.6h6.92v55.34h-6.92v-55.34Z"/>
    <path class="cls-2" d="M588.75,372.6h11.07v-12.45h6.92v12.45h19.79v6.6h-19.79v26.5c0,6.03.85,10.27,2.55,12.72,1.7,2.45,4.5,3.67,8.41,3.67,3.62,0,6.67-1.56,9.15-4.68l4.26,4.15c-1.49,2.06-3.55,3.76-6.17,5.11-2.62,1.35-5.46,2.02-8.51,2.02-11.07,0-16.6-7.13-16.6-21.39v-28.09h-11.07v-6.6Z"/>
    <path class="cls-2" d="M683.36,417.4c-4.97,7.73-12.31,11.6-22.03,11.6-8.8,0-15.89-2.62-21.28-7.88-5.39-5.25-8.09-12.24-8.09-20.96s2.46-15.38,7.4-20.8c4.93-5.43,11.79-8.14,20.59-8.14,7.38,0,13.46,2.31,18.25,6.92,4.79,4.61,7.18,10.68,7.18,18.2,0,1.42-.14,3.41-.43,5.96h-45.65c.07,6.24,2.18,11.16,6.33,14.74,4.15,3.58,9.49,5.37,16.02,5.37,3.41,0,6.67-.87,9.79-2.61,3.12-1.74,5.53-3.92,7.24-6.54l4.68,4.15ZM645.47,382.76c-3.55,3.37-5.64,7.75-6.28,13.14h38.73c-.14-5.67-1.86-10.13-5.16-13.35-3.3-3.23-7.75-4.84-13.35-4.84s-10.39,1.68-13.94,5.05Z"/>
  </g>
  <rect class="cls-1" x="294.31" y="140.92" width="56.7" height="51.92" rx="4" ry="4"/>
  <rect class="cls-2" x="358.52" y="140.92" width="56.7" height="51.92" rx="4" ry="4"/>
  <rect class="cls-1" x="422.74" y="141.26" width="56.7" height="51.92" rx="4" ry="4"/>
  <rect class="cls-2" x="294.31" y="205.91" width="56.7" height="51.92" rx="4" ry="4"/>
  <rect class="cls-2" x="358.52" y="205.91" width="56.7" height="51.92" rx="4" ry="4"/>
  <rect class="cls-2" x="422.74" y="205.91" width="56.7" height="51.92" rx="4" ry="4"/>
  <rect class="cls-1" x="294.13" y="269.7" width="56.7" height="51.92" rx="4" ry="4"/>
  <rect class="cls-2" x="358.52" y="269.7" width="56.7" height="51.92" rx="4" ry="4"/>
  <rect class="cls-1" x="422.74" y="269.7" width="56.7" height="51.92" rx="4" ry="4"/>
</svg>